# xmcd
#
# Track frame offsets: 
#        150
#        17157
#        40152
#        59955
#        83182
#        96080
#        116277
#        130392
#        147972
#        165140
#
# Disc length: 2492 seconds
#
# Revision: 6
# Processed by: cddbd v1.5.2PL0 Copyright (c) Steve Scherf et al.
# Submitted via: ExactAudioCopyFreeDBPlugin 1.0
#
DISCID=8109ba0a
DTITLE=Dan Baird - Love Songs for the Hearing Impaired
DYEAR=1992
DGENRE=Rock
TTITLE0=The One I Am
TTITLE1=Julie and Lucky
TTITLE2=I Love You Period
TTITLE3=Look At What You Started
TTITLE4=Seriously Gone
TTITLE5=Pick Up the Knife
TTITLE6=Knocked Up
TTITLE7=Baby Talk
TTITLE8=Lost Highway
TTITLE9=Dixie Beauxderaunt
EXTD=YEAR: 1992
EXTT0=
EXTT1=
EXTT2=
EXTT3=
EXTT4=
EXTT5=
EXTT6=
EXTT7=
EXTT8=
EXTT9=
PLAYORDER=
